<?xml version="1.0" encoding="iso-8859-1"?>
<!-- Generator: Adobe Illustrator 16.0.0, SVG Export Plug-In . SVG Version: 6.00 Build 0)  -->
<!DOCTYPE svg PUBLIC "-//W3C//DTD SVG 1.1//EN" "http://www.w3.org/Graphics/SVG/1.1/DTD/svg11.dtd">
<svg version="1.1" id="Calque_1" xmlns="http://www.w3.org/2000/svg" xmlns:xlink="http://www.w3.org/1999/xlink" x="0px" y="0px"
	 width="299px" height="390px" viewBox="245.445 276.775 299 390" style="enable-background:new 245.445 276.775 299 390;"
	 xml:space="preserve">
<path style="fill:#C7C7C7;" d="M480.389,286.666c-1.266-1.264-2.981-1.976-4.771-1.977H259.667
	c-3.724,0.006-6.742,3.024-6.749,6.748V649.08c0.006,3.725,3.024,6.741,6.749,6.748h269.886c3.733,0.008,6.766-3.012,6.774-6.745
	c0,0,0-0.002,0-0.003l0.027-303.655c-0.002-1.79-0.713-3.506-1.978-4.771l-6.266-47.213L480.389,286.666z M522.83,348.246
	l-0.027,294.085H266.441V298.212h206.355l0.001,0.001l40.474-6.879l14.841,2.107L522.83,348.246z"/>
<g transform="translate(0,-1020.3622)">
	<path style="fill:#C7C7C7;" d="M308.884,1674.214c1.266,1.264,220.723,1.977,220.723,1.977c3.724-0.006,6.742-3.024,6.748-6.748
		V1311.8c-0.006-3.725-3.024-6.741-6.748-6.748H259.72c-3.733-0.008-6.766,3.012-6.774,6.745c0,0,0,0.002,0,0.003l-0.027,303.655
		c0.002,1.79,0.713,3.505,1.978,4.771l11.547-7.592l0.027-294.085h256.361v344.119l-206.355-0.001"/>
	<path style="fill:#C7C7C7;" d="M487.714,1383.519c-0.063-0.002-0.127-0.002-0.191,0h-176.77c-0.231-0.003-0.46,0.005-0.685,0.025
		h-9.805c-3.727-0.052-6.792,2.927-6.844,6.653c-0.053,3.727,2.926,6.792,6.653,6.845c0.064,0.001,0.127,0.001,0.191,0h13.672h0.191
		h6.198h37.116c0.234,0.003,0.466-0.006,0.695-0.026h129.388c3.728,0.053,6.791-2.926,6.844-6.653
		C494.419,1386.636,491.441,1383.57,487.714,1383.519z"/>
	<path style="fill:#C7C7C7;" d="M487.714,1413.52c-0.063-0.002-0.127-0.002-0.191,0h-176.77c-0.231-0.003-0.46,0.005-0.685,0.025
		h-9.805c-3.727-0.052-6.792,2.927-6.844,6.653c-0.053,3.727,2.926,6.792,6.653,6.845c0.064,0.001,0.127,0.001,0.191,0h13.672h0.191
		h6.198h37.116c0.234,0.003,0.466-0.006,0.695-0.026h129.388c3.728,0.053,6.791-2.926,6.844-6.653
		C494.419,1416.637,491.441,1413.572,487.714,1413.52z"/>
	<path style="fill:#C7C7C7;" d="M487.714,1443.519c-0.063-0.002-0.127-0.002-0.191,0h-176.77c-0.231-0.003-0.46,0.005-0.685,0.025
		h-9.805c-3.727-0.052-6.792,2.927-6.844,6.653c-0.053,3.727,2.926,6.792,6.653,6.845c0.064,0.001,0.127,0.001,0.191,0h13.672h0.191
		h6.198h37.116c0.234,0.003,0.466-0.006,0.695-0.026h129.388c3.728,0.053,6.791-2.926,6.844-6.653
		C494.419,1446.636,491.441,1443.57,487.714,1443.519z"/>
	<path style="fill:#C7C7C7;" d="M487.714,1473.52c-0.063-0.002-0.127-0.002-0.191,0h-176.77c-0.231-0.003-0.46,0.005-0.685,0.025
		h-9.805c-3.727-0.052-6.792,2.927-6.844,6.653c-0.053,3.727,2.926,6.792,6.653,6.845c0.064,0.001,0.127,0.001,0.191,0h13.672h0.191
		h6.198h37.116c0.234,0.003,0.466-0.006,0.695-0.026h129.388c3.728,0.053,6.791-2.926,6.844-6.653
		C494.419,1476.637,491.441,1473.572,487.714,1473.52z"/>
	<path style="fill:#C7C7C7;" d="M487.714,1504.019c-0.063-0.002-0.127-0.002-0.191,0h-176.77c-0.231-0.003-0.46,0.005-0.685,0.025
		h-9.805c-3.727-0.052-6.792,2.927-6.844,6.653c-0.053,3.727,2.926,6.792,6.653,6.845c0.064,0.001,0.127,0.001,0.191,0h13.672h0.191
		h6.198h37.116c0.234,0.003,0.466-0.006,0.695-0.026h129.388c3.728,0.053,6.791-2.926,6.844-6.653
		C494.419,1507.136,491.441,1504.07,487.714,1504.019z"/>
	<path style="fill:#C7C7C7;" d="M487.714,1534.02c-0.063-0.002-0.127-0.002-0.191,0h-176.77c-0.231-0.003-0.46,0.005-0.685,0.025
		h-9.805c-3.727-0.052-6.792,2.927-6.844,6.653c-0.053,3.727,2.926,6.792,6.653,6.845c0.064,0.001,0.127,0.001,0.191,0h13.672h0.191
		h6.198h37.116c0.234,0.003,0.466-0.006,0.695-0.026h129.388c3.728,0.053,6.791-2.926,6.844-6.653
		C494.419,1537.137,491.441,1534.072,487.714,1534.02z"/>
	<path style="fill:#C7C7C7;" d="M487.714,1564.019c-0.063-0.002-0.127-0.002-0.191,0h-176.77c-0.231-0.003-0.46,0.005-0.685,0.025
		h-9.805c-3.727-0.052-6.792,2.927-6.844,6.653c-0.053,3.727,2.926,6.792,6.653,6.845c0.064,0.001,0.127,0.001,0.191,0h13.672h0.191
		h6.198h37.116c0.234,0.003,0.466-0.006,0.695-0.026h129.388c3.728,0.053,6.791-2.926,6.844-6.653
		C494.419,1567.136,491.441,1564.07,487.714,1564.019z"/>
	<path style="fill:#C7C7C7;" d="M487.714,1594.02c-0.063-0.002-0.127-0.002-0.191,0h-176.77c-0.231-0.003-0.46,0.005-0.685,0.025
		h-9.805c-3.727-0.052-6.792,2.927-6.844,6.654c-0.053,3.727,2.926,6.791,6.653,6.844c0.064,0.002,0.127,0.002,0.191,0h13.672h0.191
		h6.198h37.116c0.234,0.004,0.466-0.006,0.695-0.025h129.388c3.728,0.053,6.791-2.926,6.844-6.653
		C494.419,1597.137,491.441,1594.072,487.714,1594.02z"/>
</g>
</svg>
