<?xml version="1.0" encoding="iso-8859-1"?>
<!-- Generator: Adobe Illustrator 16.0.0, SVG Export Plug-In . SVG Version: 6.00 Build 0)  -->
<!DOCTYPE svg PUBLIC "-//W3C//DTD SVG 1.1//EN" "http://www.w3.org/Graphics/SVG/1.1/DTD/svg11.dtd">
<svg version="1.1" id="Calque_1" xmlns="http://www.w3.org/2000/svg" xmlns:xlink="http://www.w3.org/1999/xlink" x="0px" y="0px"
	 width="299px" height="390px" viewBox="0 0 299 390" style="enable-background:new 0 0 299 390;" xml:space="preserve">
<g>
	<path style="fill:#FF554F;" d="M235.252,11.407c-1.268-1.264-2.98-1.977-4.771-1.977H14.53c-3.724,0.006-6.742,3.022-6.749,6.748
		v357.643c0.006,3.725,3.024,6.74,6.749,6.748h269.888c3.73,0.008,6.766-3.012,6.771-6.746v-0.002l0.027-303.655
		c-0.002-1.79-0.713-3.506-1.979-4.771l-6.266-47.213L235.252,11.407z M277.693,72.987l-0.025,294.084H21.304V22.953H227.66v0.001
		l40.475-6.879l14.84,2.107L277.693,72.987z"/>
	<g transform="translate(0,-1020.3622)">
		<path style="fill:#FF554F;" d="M63.748,1398.955c1.266,1.264,220.722,1.977,220.722,1.977c3.725-0.006,6.742-3.021,6.748-6.748
			v-357.643c-0.006-3.725-3.023-6.74-6.748-6.748H14.583c-3.733-0.008-6.768,3.012-6.774,6.746v0.002l-0.027,303.656
			c0.002,1.789,0.713,3.504,1.979,4.77l11.547-7.592l0.027-294.084h256.36v344.119l-206.354-0.002"/>
		<path style="fill:#FF554F;" d="M242.578,1108.26c-0.063-0.002-0.127-0.002-0.191,0H65.617c-0.231-0.002-0.46,0.006-0.687,0.024
			h-9.805c-3.729-0.052-6.792,2.929-6.846,6.653c-0.053,3.729,2.928,6.791,6.653,6.845c0.064,0.001,0.127,0.001,0.191,0h13.672h0.19
			h6.197h37.116c0.234,0.004,0.466-0.006,0.695-0.024h129.388c3.729,0.053,6.791-2.927,6.844-6.654
			C249.281,1111.377,246.304,1108.31,242.578,1108.26z"/>
		<path style="fill:#FF554F;" d="M242.578,1138.262c-0.063-0.002-0.127-0.002-0.191,0H65.617c-0.231-0.004-0.46,0.004-0.687,0.025
			h-9.805c-3.729-0.054-6.792,2.926-6.846,6.651c-0.053,3.726,2.928,6.792,6.653,6.845c0.064,0.001,0.127,0.001,0.191,0h13.672h0.19
			h6.197h37.116c0.234,0.004,0.466-0.006,0.695-0.025h129.388c3.729,0.053,6.791-2.926,6.844-6.652
			S246.304,1138.313,242.578,1138.262z"/>
		<path style="fill:#FF554F;" d="M242.578,1168.26c-0.063-0.002-0.127-0.002-0.191,0H65.617c-0.231-0.002-0.46,0.006-0.687,0.025
			h-9.805c-3.729-0.055-6.792,2.928-6.846,6.65c-0.053,3.73,2.928,6.793,6.653,6.846c0.064,0.002,0.127,0.002,0.191,0h13.672h0.19
			h6.197h37.116c0.234,0.006,0.466-0.006,0.695-0.023h129.388c3.729,0.053,6.791-2.926,6.844-6.654
			C249.283,1171.377,246.304,1168.31,242.578,1168.26z"/>
		<path style="fill:#FF554F;" d="M242.578,1198.262c-0.063-0.002-0.127-0.002-0.191,0H65.617c-0.231-0.004-0.46,0.004-0.687,0.025
			h-9.805c-3.729-0.055-6.792,2.926-6.846,6.65c-0.053,3.727,2.928,6.791,6.653,6.848c0.064,0,0.127,0,0.191,0h13.672h0.19h6.197
			h37.116c0.234,0.002,0.466-0.01,0.695-0.027h129.388c3.729,0.053,6.791-2.926,6.844-6.652S246.304,1198.312,242.578,1198.262z"/>
		<path style="fill:#FF554F;" d="M242.578,1228.76c-0.063-0.002-0.127-0.002-0.191,0H65.617c-0.231-0.002-0.46,0.006-0.687,0.025
			h-9.805c-3.729-0.055-6.792,2.928-6.846,6.65c-0.053,3.73,2.928,6.793,6.653,6.846c0.064,0.002,0.127,0.002,0.191,0h13.672h0.19
			h6.197h37.116c0.234,0.006,0.466-0.006,0.695-0.023h129.388c3.729,0.053,6.791-2.926,6.844-6.654
			C249.283,1231.877,246.304,1228.81,242.578,1228.76z"/>
		<path style="fill:#FF554F;" d="M242.578,1258.762c-0.063-0.002-0.127-0.002-0.191,0H65.617c-0.231-0.004-0.46,0.004-0.687,0.025
			h-9.805c-3.729-0.055-6.792,2.926-6.846,6.65c-0.053,3.727,2.928,6.791,6.653,6.848c0.064,0,0.127,0,0.191,0h13.672h0.19h6.197
			h37.116c0.234,0.002,0.466-0.01,0.695-0.027h129.388c3.729,0.053,6.791-2.926,6.844-6.652S246.304,1258.812,242.578,1258.762z"/>
		<path style="fill:#FF554F;" d="M242.578,1288.76c-0.063-0.002-0.127-0.002-0.191,0H65.617c-0.231-0.002-0.46,0.006-0.687,0.025
			h-9.805c-3.729-0.055-6.792,2.928-6.846,6.65c-0.053,3.73,2.928,6.793,6.653,6.846c0.064,0.002,0.127,0.002,0.191,0h13.672h0.19
			h6.197h37.116c0.234,0.006,0.466-0.006,0.695-0.023h129.388c3.729,0.053,6.791-2.926,6.844-6.654
			C249.283,1291.877,246.304,1288.81,242.578,1288.76z"/>
		<path style="fill:#FF554F;" d="M242.578,1318.762c-0.063-0.002-0.127-0.002-0.191,0H65.617c-0.231-0.004-0.46,0.004-0.687,0.025
			h-9.805c-3.729-0.055-6.792,2.926-6.846,6.65c-0.053,3.73,2.928,6.791,6.653,6.848c0.064,0.002,0.127,0.002,0.191,0h13.672h0.19
			h6.197h37.116c0.234,0.004,0.466-0.008,0.695-0.025h129.388c3.729,0.053,6.791-2.926,6.844-6.654
			C249.283,1321.879,246.304,1318.812,242.578,1318.762z"/>
	</g>
</g>
</svg>
