<?xml version="1.0" encoding="iso-8859-1"?>
<!-- Generator: Adobe Illustrator 16.0.0, SVG Export Plug-In . SVG Version: 6.00 Build 0)  -->
<!DOCTYPE svg PUBLIC "-//W3C//DTD SVG 1.1//EN" "http://www.w3.org/Graphics/SVG/1.1/DTD/svg11.dtd">
<svg version="1.1" id="Calque_1" xmlns="http://www.w3.org/2000/svg" xmlns:xlink="http://www.w3.org/1999/xlink" x="0px" y="0px"
	 width="36.833px" height="36.333px" viewBox="281.833 907.167 36.833 36.333"
	 style="enable-background:new 281.833 907.167 36.833 36.333;" xml:space="preserve">
<path style="fill:#FFFFFF;" d="M297.484,909.506c-7.144,0-12.978,5.834-12.978,12.978s5.834,12.978,12.978,12.978
	c2.49,0,4.822-0.709,6.8-1.935c0.021,0.021,0.041,0.042,0.063,0.062l6.987,6.988c1.146,1.199,3.045,1.243,4.243,0.098
	c1.199-1.145,1.242-3.044,0.098-4.243c-0.031-0.033-0.064-0.066-0.098-0.098l-6.988-6.988c-0.021-0.021-0.041-0.042-0.062-0.062
	c1.226-1.98,1.935-4.311,1.935-6.8C310.462,915.34,304.628,909.506,297.484,909.506z M297.484,913.499
	c4.986,0,8.985,3.999,8.985,8.985c0,4.985-3.999,8.985-8.985,8.985s-8.985-4-8.985-8.985
	C288.499,917.498,292.498,913.499,297.484,913.499z"/>
</svg>
