<?xml version="1.0" encoding="iso-8859-1"?>
<!-- Generator: Adobe Illustrator 16.0.0, SVG Export Plug-In . SVG Version: 6.00 Build 0)  -->
<!DOCTYPE svg PUBLIC "-//W3C//DTD SVG 1.1//EN" "http://www.w3.org/Graphics/SVG/1.1/DTD/svg11.dtd">
<svg version="1.1" id="Calque_1" xmlns="http://www.w3.org/2000/svg" xmlns:xlink="http://www.w3.org/1999/xlink" x="0px" y="0px"
	 width="740px" height="471px" viewBox="195.445 -7.86 740 471" style="enable-background:new 195.445 -7.86 740 471;"
	 xml:space="preserve">
<g>
	<path style="opacity:0.11;fill:#FFFFFF;" d="M391.032,23.811c-6.184,0.648-11.239,5.222-12.501,11.311l-11.013,50.896
		c-5.571,1.954-10.94,4.167-16.222,6.696l-43.901-28.127c-5.665-3.646-13.106-2.839-17.858,1.935l-40.182,40.182
		c-4.774,4.753-5.58,12.194-1.935,17.858l28.127,43.902c-2.53,5.281-4.742,10.649-6.697,16.221l-50.896,11.013
		c-6.601,1.407-11.316,7.24-11.31,13.989v56.85c-0.007,6.749,4.709,12.582,11.31,13.989l50.896,11.013
		c1.955,5.571,4.167,10.94,6.697,16.222l-28.127,43.901c-3.646,5.665-2.84,13.106,1.935,17.858l40.182,40.182
		c4.752,4.774,12.193,5.58,17.858,1.935l43.901-28.127c5.281,2.53,10.65,4.742,16.222,6.697l11.013,50.896
		c1.406,6.601,7.24,11.317,13.989,11.31h56.85c6.749,0.008,12.582-4.709,13.989-11.31l11.013-50.896
		c5.571-1.955,10.939-4.167,16.221-6.697l43.902,28.127c5.665,3.646,13.105,2.84,17.858-1.935l40.182-40.182
		c4.773-4.752,5.58-12.193,1.935-17.858l-28.127-43.901c2.53-5.281,4.742-10.65,6.696-16.222l50.896-11.013
		c6.602-1.407,11.317-7.24,11.311-13.989v-56.85c0.007-6.749-4.709-12.582-11.311-13.989l-50.896-11.013
		c-1.954-5.571-4.166-10.939-6.696-16.221l28.127-43.902c3.646-5.664,2.839-13.105-1.935-17.858l-40.182-40.182
		c-4.753-4.773-12.193-5.58-17.858-1.935l-43.902,28.127c-5.281-2.529-10.649-4.742-16.221-6.696l-11.013-50.896
		c-1.407-6.602-7.24-11.317-13.989-11.311h-56.85C392.024,23.785,391.528,23.785,391.032,23.811z M403.979,52.385h33.932
		l10.119,46.879c1.104,5.132,4.932,9.246,9.972,10.715c9.581,2.77,18.848,6.599,27.383,11.311c4.576,2.531,10.171,2.36,14.584-0.447
		l40.33-25.895l23.812,23.812l-25.895,40.33c-2.808,4.413-2.979,10.008-0.446,14.584c4.712,8.535,8.54,17.802,11.31,27.384
		c1.47,5.039,5.583,8.867,10.716,9.971l46.878,10.119v33.932l-46.878,10.119c-5.133,1.104-9.246,4.932-10.716,9.972
		c-2.77,9.581-6.598,18.848-11.31,27.383c-2.532,4.577-2.361,10.171,0.446,14.584l25.895,40.331l-23.812,23.811l-40.33-25.895
		c-4.413-2.807-10.008-2.979-14.584-0.446c-8.535,4.712-17.802,8.541-27.383,11.311c-5.04,1.469-8.868,5.583-9.972,10.715
		l-10.119,46.878h-33.932l-10.12-46.878c-1.103-5.132-4.931-9.246-9.971-10.715c-9.581-2.77-18.849-6.599-27.383-11.311
		c-4.576-2.532-10.171-2.36-14.584,0.446l-40.33,25.895l-23.812-23.811l25.895-40.331c2.807-4.413,2.979-10.007,0.446-14.584
		c-4.712-8.535-8.54-17.802-11.311-27.383c-1.469-5.04-5.582-8.868-10.715-9.972l-46.878-10.119v-33.932l46.878-10.119
		c5.133-1.104,9.246-4.932,10.715-9.971c2.771-9.582,6.599-18.849,11.311-27.384c2.532-4.576,2.36-10.171-0.446-14.584
		l-25.895-40.33l23.812-23.812l40.33,25.895c4.413,2.808,10.008,2.979,14.584,0.447c8.534-4.712,17.802-8.541,27.383-11.311
		c5.04-1.469,8.868-5.583,9.971-10.715L403.979,52.385z M420.945,138.105c-55.063,0-100.007,44.943-100.007,100.007
		S365.882,338.12,420.945,338.12s100.007-44.944,100.007-100.008S476.009,138.105,420.945,138.105z M420.945,166.678
		c39.621,0,71.434,31.813,71.434,71.434s-31.813,71.434-71.434,71.434s-71.434-31.813-71.434-71.434
		S381.324,166.678,420.945,166.678z"/>
	<path style="opacity:0.11;fill:#FFFFFF;" d="M751.584,3.054c-4.3,0.451-7.816,3.632-8.694,7.867l-7.66,35.4
		c-3.874,1.359-7.608,2.898-11.282,4.657l-30.535-19.563c-3.94-2.535-9.116-1.975-12.421,1.346L653.043,60.71
		c-3.32,3.305-3.881,8.481-1.345,12.421l19.563,30.536c-1.76,3.673-3.299,7.407-4.658,11.282l-35.4,7.66
		c-4.591,0.978-7.871,5.036-7.866,9.73v39.541c-0.005,4.694,3.275,8.751,7.866,9.73l35.4,7.66c1.359,3.875,2.898,7.61,4.658,11.283
		l-19.563,30.535c-2.536,3.94-1.976,9.116,1.345,12.422l27.948,27.948c3.305,3.321,8.48,3.881,12.421,1.345l30.535-19.563
		c3.674,1.759,7.408,3.298,11.282,4.658l7.66,35.4c0.979,4.592,5.036,7.873,9.729,7.867h39.543c4.693,0.006,8.75-3.275,9.729-7.867
		l7.66-35.4c3.874-1.36,7.608-2.899,11.281-4.658l30.536,19.563c3.94,2.536,9.115,1.976,12.421-1.345l27.948-27.948
		c3.32-3.306,3.881-8.481,1.345-12.422l-19.563-30.535c1.76-3.673,3.299-7.408,4.657-11.283l35.401-7.66
		c4.591-0.979,7.871-5.036,7.866-9.73v-39.541c0.005-4.694-3.275-8.752-7.866-9.73l-35.401-7.66
		c-1.358-3.875-2.897-7.609-4.657-11.282l19.563-30.536c2.536-3.94,1.976-9.116-1.345-12.421L863.79,32.762
		c-3.306-3.321-8.48-3.881-12.421-1.346l-30.536,19.563c-3.673-1.759-7.407-3.298-11.281-4.657l-7.66-35.4
		c-0.979-4.592-5.036-7.872-9.729-7.867h-39.543C752.275,3.036,751.929,3.036,751.584,3.054z M760.59,22.928h23.602l7.038,32.606
		c0.768,3.569,3.43,6.431,6.936,7.453c6.664,1.926,13.108,4.589,19.046,7.867c3.183,1.761,7.074,1.642,10.145-0.311l28.051-18.011
		l16.562,16.563l-18.011,28.051c-1.952,3.069-2.071,6.961-0.311,10.144c3.277,5.936,5.939,12.381,7.867,19.046
		c1.021,3.505,3.883,6.167,7.452,6.936l32.605,7.038v23.601l-32.605,7.039c-3.569,0.768-6.431,3.43-7.452,6.935
		c-1.928,6.665-4.59,13.109-7.867,19.046c-1.761,3.183-1.642,7.074,0.311,10.144l18.011,28.052l-16.562,16.562l-28.051-18.011
		c-3.07-1.952-6.962-2.072-10.145-0.311c-5.938,3.277-12.382,5.94-19.046,7.867c-3.506,1.021-6.168,3.883-6.936,7.453l-7.038,32.605
		H760.59l-7.039-32.605c-0.767-3.57-3.429-6.432-6.935-7.453c-6.664-1.926-13.11-4.589-19.046-7.867
		c-3.183-1.761-7.074-1.642-10.145,0.311l-28.051,18.011l-16.562-16.562l18.011-28.052c1.952-3.07,2.071-6.96,0.311-10.144
		c-3.277-5.937-5.939-12.382-7.866-19.046c-1.022-3.505-3.884-6.167-7.453-6.935l-32.605-7.039v-23.601l32.605-7.038
		c3.569-0.768,6.431-3.431,7.453-6.936c1.927-6.665,4.589-13.11,7.866-19.046c1.761-3.183,1.642-7.075-0.311-10.144l-18.011-28.051
		l16.562-16.563l28.051,18.011c3.07,1.953,6.962,2.071,10.145,0.311c5.936-3.278,12.382-5.94,19.046-7.867
		c3.506-1.021,6.168-3.884,6.935-7.453L760.59,22.928z M772.39,82.551c-38.299,0-69.559,31.26-69.559,69.559
		s31.26,69.56,69.559,69.56s69.559-31.261,69.559-69.56S810.689,82.551,772.39,82.551z M772.39,102.424
		c27.559,0,49.685,22.127,49.685,49.685c0,27.558-22.126,49.685-49.685,49.685s-49.685-22.127-49.685-49.685
		C722.706,124.551,744.832,102.424,772.39,102.424z"/>
</g>
</svg>
