<?xml version="1.0" encoding="iso-8859-1"?>
<!-- Generator: Adobe Illustrator 16.0.0, SVG Export Plug-In . SVG Version: 6.00 Build 0)  -->
<!DOCTYPE svg PUBLIC "-//W3C//DTD SVG 1.1//EN" "http://www.w3.org/Graphics/SVG/1.1/DTD/svg11.dtd">
<svg version="1.1" id="Calque_1" xmlns="http://www.w3.org/2000/svg" xmlns:xlink="http://www.w3.org/1999/xlink" x="0px" y="0px"
	 width="249px" height="258px" viewBox="580.445 585.775 249 258" style="enable-background:new 580.445 585.775 249 258;"
	 xml:space="preserve">
<path style="fill:#5F5F5F;" d="M744.315,740.669c-0.737-0.36-1.197-1.116-1.179-1.937v-22.226c3.307-5.605,5.562-11.769,6.65-18.186
	c2.526,0,5.894-3.788,9.514-16.837c4.799-16.838,0-19.785-4.294-19.616c10.776-49.335-16.838-49.503-16.838-49.503
	c-4.643-12.674-17.679-20.22-30.981-17.933c-13.986,1.581-28.107,1.581-42.094,0c0.016,3.896,1.739,7.588,4.714,10.103
	c-24.751,15.154-19.11,48.409-16.838,58.006c-4.209,0-8.419,3.199-3.957,19.616c3.621,12.713,6.988,16.333,9.514,16.838
	c1.142,6.179,3.364,12.106,6.567,17.512v22.226c0.018,0.82-0.442,1.576-1.179,1.937c-24.242,12.192-47.104,26.954-68.193,44.03
	c-5.352,4.415-8.44,10.996-8.419,17.933v32.581h233.961v-32.665c0.022-6.937-3.067-13.519-8.419-17.933
	C791.646,767.548,768.67,752.814,744.315,740.669z"/>
</svg>
