<?xml version="1.0" encoding="iso-8859-1"?>
<!-- Generator: Adobe Illustrator 16.0.0, SVG Export Plug-In . SVG Version: 6.00 Build 0)  -->
<!DOCTYPE svg PUBLIC "-//W3C//DTD SVG 1.1//EN" "http://www.w3.org/Graphics/SVG/1.1/DTD/svg11.dtd">
<svg version="1.1" id="Calque_1" xmlns="http://www.w3.org/2000/svg" xmlns:xlink="http://www.w3.org/1999/xlink" x="0px" y="0px"
	 width="229px" height="228px" viewBox="493.445 735.775 229 228" style="enable-background:new 493.445 735.775 229 228;"
	 xml:space="preserve">
<g style="opacity:0.1;">
	<g>
		<path style="fill:#FFFFFF;" d="M595.652,790.025c-27.096,0-49.134,22.037-49.134,49.133s22.038,49.134,49.134,49.134
			c1.31,0,2.574-0.045,3.839-0.136l-6.277-19.238c-15.354-1.264-27.412-14.135-27.412-29.76c0-16.483,13.413-29.85,29.851-29.85
			c15.67,0,28.541,12.103,29.76,27.411l19.238,6.277c0.09-1.265,0.136-2.529,0.136-3.839
			C644.785,812.062,622.747,790.025,595.652,790.025z"/>
	</g>
	<g>
		<path style="fill:#FFFFFF;" d="M595.652,744.594c-52.114,0-94.519,42.404-94.519,94.519s42.404,94.563,94.519,94.563
			c6.187,0,12.283-0.587,18.154-1.761l-6.052-18.471c-3.929,0.633-7.993,0.994-12.103,0.994c-41.502,0-75.28-33.779-75.28-75.281
			c0-41.501,33.778-75.28,75.28-75.28s75.281,33.779,75.281,75.28c0,4.109-0.316,8.174-0.994,12.104l18.516,6.006
			c1.129-5.871,1.761-11.923,1.761-18.154C690.17,787.043,647.766,744.594,595.652,744.594z"/>
	</g>
	<polygon style="fill:#FFFFFF;" points="713.156,881.562 653.365,896.871 638.056,956.662 623.56,912.361 619.089,898.678 
		613.038,880.073 608.568,866.389 601.613,845.118 622.883,852.073 636.566,856.544 655.172,862.595 668.855,867.067 	"/>
</g>
</svg>
