<?xml version="1.0" encoding="iso-8859-1"?>
<!-- Generator: Adobe Illustrator 16.0.0, SVG Export Plug-In . SVG Version: 6.00 Build 0)  -->
<!DOCTYPE svg PUBLIC "-//W3C//DTD SVG 1.1//EN" "http://www.w3.org/Graphics/SVG/1.1/DTD/svg11.dtd">
<svg version="1.1" id="Calque_1" xmlns="http://www.w3.org/2000/svg" xmlns:xlink="http://www.w3.org/1999/xlink" x="0px" y="0px"
	 width="779px" height="769px" viewBox="30.445 104.775 779 769" style="enable-background:new 30.445 104.775 779 769;"
	 xml:space="preserve">
<g style="opacity:0.1;">
	<path style="fill:#FFFFFF;" d="M536.376,425.937L799.795,314.37c-40.646-95.959-116.315-166.357-205.834-202.618L487.092,375.626
		C507.667,387.707,524.749,405.058,536.376,425.937z"/>
	<path style="fill:#FFFFFF;" d="M776.727,369.363l-226.014,95.714c1.625,8.352,2.551,16.973,2.551,25.813
		c0,73.867-59.883,133.751-133.75,133.751c-73.868,0-133.743-59.884-133.743-133.751s59.875-133.751,133.743-133.751
		c8.115,0,16.021,0.842,23.749,2.223l92.145-227.546c-83.237-26.898-176.131-25.24-263.006,11.551
		C80.485,224.658-9.211,446.125,72.082,638.026c81.26,191.909,302.743,281.587,494.652,200.328
		C750.14,760.664,840.079,554.956,776.727,369.363z"/>
</g>
</svg>
